<svg id="Layer_1" data-name="Layer 1" xmlns="http://www.w3.org/2000/svg" viewBox="0 0 637.98 638"><defs><style>.cls-1{fill:#018837;}.cls-1,.cls-3{fill-rule:evenodd;}.cls-2,.cls-3{fill:#fff;}</style></defs><title>Halal Logo Vector</title><path class="cls-1" d="M500,181c-176.17,0-319,142.82-319,319S323.84,819,500,819,819,676.18,819,500,676.17,181,500,181Z" transform="translate(-181.01 -181)"/><path class="cls-1" d="M500,216.37c-156.64,0-283.63,127-283.63,283.64S343.37,783.63,500,783.63,783.62,656.65,783.62,500,656.64,216.37,500,216.37Z" transform="translate(-181.01 -181)"/><path class="cls-2" d="M500,224h0v0a276.09,276.09,0,0,0-276,276h0v.1h0a276.09,276.09,0,0,0,276,276v0h.1v0a276.07,276.07,0,0,0,276-276h0V500h0A276.09,276.09,0,0,0,500.07,224v0Zm0-15.23v0h.09v0A291.16,291.16,0,0,1,791.22,500h0v.09h0A291.15,291.15,0,0,1,500,791.23v0h-.1v0A291.15,291.15,0,0,1,208.78,500h0v-.1h0A291.16,291.16,0,0,1,500,208.77Z" transform="translate(-181.01 -181)"/><path class="cls-3" d="M416.21,646l5.73-17.62h.28L428,646Zm31.58,11c-3.51-9.43-7.49-20.31-11.46-31.28l-6.27-17.44-6.36,1.27-18.47,47.72c-3,7.75-4.42,8.11-9.14,8.77v3.6h21.5V666l-2.66-.28c-4.25-.47-4.25-1.38-3.06-5.34l2.78-8.86h15.13l3.33,9.41c1.19,3.31,1,4.25-2.41,4.7l-2.78.37v3.6h29V666c-4.52-.54-6.18-1-9.12-9Zm132-11,5.74-17.62h.26L591.64,646Zm31.57,11c-3.51-9.43-7.47-20.31-11.44-31.28l-6.27-17.44-6.38,1.27-18.46,47.72c-3.05,7.75-4.4,8.11-9.11,8.77v3.6h21.5V666l-2.68-.28c-4.25-.47-4.25-1.38-3-5.34l2.76-8.86h15.13l3.34,9.41c1.18,3.31,1,4.25-2.42,4.7l-2.76.37v3.6h29V666c-4.53-.54-6.17-1-9.14-9Zm77.81,5.16c-1.94,2.4-5.91,2.67-8.85,2.67s-5-.08-6.48-.82c-1.67-.83-1.85-3.14-1.85-7.94V624.36c0-10,.75-10.6,7.4-11.15V609.6h-30v3.61c6.2.55,7,1.19,7,11.15v30.45c0,10-.75,10.64-7.77,11.18v3.6h45.79c.82-2.87,2.76-12.46,3.29-16l-4-.64c-1.49,4.89-3.05,7.39-4.51,9.13Zm-163.63,0c-1.93,2.4-5.89,2.67-8.84,2.67s-5-.08-6.47-.82c-1.66-.83-1.85-3.14-1.85-7.94V624.36c0-10,.74-10.6,7.38-11.15V609.6h-30v3.61c6.17.55,6.91,1.19,6.91,11.15v30.45c0,10-.74,10.64-7.74,11.18v3.6h45.75c.82-2.87,2.77-12.46,3.33-16l-4-.64c-1.49,4.89-3.05,7.39-4.54,9.13Zm-187.51-48.9c5.83.55,6.56,1.19,6.56,11.15v10.71h-19.1V624.36c0-10,.74-10.6,6.37-11.15V609.6H302.35v3.61c6.72.55,7.46,1.19,7.46,11.15v30.45c0,10-.74,10.64-7.1,11.18v3.6h29.53V666c-6-.54-6.73-1.21-6.73-11.18v-14h19.1v14c0,10-.73,10.64-7.3,11.18v3.6h30.08V666c-6.36-.54-7.1-1.21-7.1-11.18V624.36c0-10,.74-10.6,7.29-11.15V609.6H338.05v3.61Z" transform="translate(-181.01 -181)"/><path class="cls-3" d="M452.52,458.49c18.61,13,28.79,53.64,28.79,53.64,10.15-91-72.8-117-72.8-117s-1.72,4.85,0,29.19,25.33,21.16,44,34.16Z" transform="translate(-181.01 -181)"/><path class="cls-3" d="M401.71,536.47c6.8-16.22-5.09-104-5.09-126.77s8.45-35.7,8.45-35.7c-11.82-6.52-20.25-35.78-20.25-35.78-3.45,8.13-15.26,26-15.26,26s33.86,160.93,11.81,180.33-66,22.8-91.42,6.6,1.66-68.31,1.66-68.31c-15.26,17.87-27.09,39-25.39,61.71s18.62,45.48,59.27,47.14,69.41-39,76.22-55.21Z" transform="translate(-181.01 -181)"/><path class="cls-3" d="M618.49,476.34c-27.57,3.13-42.72,49.38-43.94,53.26.64-1.73,4.38-9.19,23.62-19.12,22-11.43,66,13,66,13-20.29,17.87-57.6,19.49-88.06,16.21s-28.8-68.23-30.47-118.56-11.88-45.49-11.88-45.49,1.7-22.8-20.28,81.2S372.92,586.77,372.92,586.77c66.08,9.79,113.47-21.09,130.36-53.56s28.77-100.75,28.77-100.75c0,97.52,8.51,121.85,33.93,133.22s74.52-4.83,110.09-17.85c22.64-8.27,49.12-4.85,49.12-4.85l20.3-30.85s-28.82,1.57-49.09-6.49-49.1-32.52-77.91-29.3Z" transform="translate(-181.01 -181)"/></svg>