<?xml version="1.0" encoding="UTF-8" standalone="no"?>
<!-- Created with Inkscape (http://www.inkscape.org/) -->

<svg
   width="884.36169"
   height="462.99838"
   viewBox="0 0 884.36169 462.99838"
   version="1.1"
   id="svg1"
   sodipodi:docname="hannys-logo.svg"
   inkscape:version="1.3 (0e150ed6c4, 2023-07-21)"
   xmlns:inkscape="http://www.inkscape.org/namespaces/inkscape"
   xmlns:sodipodi="http://sodipodi.sourceforge.net/DTD/sodipodi-0.dtd"
   xmlns="http://www.w3.org/2000/svg"
   xmlns:svg="http://www.w3.org/2000/svg">
  <sodipodi:namedview
     id="namedview1"
     pagecolor="#ffffff"
     bordercolor="#000000"
     borderopacity="0.25"
     inkscape:showpageshadow="2"
     inkscape:pageopacity="0.0"
     inkscape:pagecheckerboard="0"
     inkscape:deskcolor="#d1d1d1"
     inkscape:document-units="px"
     inkscape:zoom="0.5"
     inkscape:cx="1122"
     inkscape:cy="403"
     inkscape:window-width="1920"
     inkscape:window-height="1017"
     inkscape:window-x="-8"
     inkscape:window-y="-8"
     inkscape:window-maximized="1"
     inkscape:current-layer="layer1" />
  <defs
     id="defs1">
    <inkscape:path-effect
       effect="spiro"
       id="path-effect2-3-2"
       is_visible="true"
       lpeversion="1" />
    <inkscape:path-effect
       effect="bend_path"
       id="path-effect6-0"
       is_visible="true"
       lpeversion="1"
       bendpath="m 305.18978,971.82884 c 263.53219,79.20876 407.8321,17.5275 486.06702,-5.2679"
       prop_scale="1"
       scale_y_rel="false"
       vertical="false"
       hide_knot="false"
       bendpath-nodetypes="cc" />
    <inkscape:path-effect
       effect="bspline"
       id="path-effect9-0"
       is_visible="true"
       lpeversion="1.3"
       weight="33.333333"
       steps="2"
       helper_size="0"
       apply_no_weight="true"
       apply_with_weight="true"
       only_selected="false"
       uniform="false" />
  </defs>
  <g
     inkscape:label="Layer 1"
     inkscape:groupmode="layer"
     id="layer1"
     transform="translate(-972.25403,-46.095512)">
    <path
       style="fill:none;stroke:#000000;stroke-width:24;stroke-linecap:round;stroke-dasharray:none"
       d="m 1369.593,524.46605 c 49.8895,-25.89634 89.1788,-71.54479 107.3578,-124.73411 18.1791,-53.18932 15.0484,-113.33606 -8.5545,-164.35061 -7.9722,-17.23092 -18.3206,-33.60341 -32.2429,-46.51198 -13.9222,-12.90858 -31.648,-22.19527 -50.5511,-23.96557 -18.7003,-1.7513 -37.7966,4.01351 -53.1425,14.84251 -15.346,10.829 -26.9987,26.51142 -34.1164,43.89256 -14.2355,34.76229 -10.291,74.68469 1.7279,110.27419 13.1628,38.9768 36.0143,75.0374 67.5829,101.41677 31.5687,26.37936 72.0401,42.64193 113.1795,42.60738 49.0066,-0.0412 96.9298,-23.59664 129.0675,-60.59412 32.1378,-36.99748 48.6598,-86.52729 48.0519,-135.53013 -0.3428,-27.6304 -6.223,-55.91673 -21.7896,-78.74735 -7.7833,-11.41532 -17.934,-21.30121 -29.9194,-28.1743 -11.9854,-6.87308 -25.827,-10.66209 -39.6339,-10.15354 -19.6111,0.72234 -38.2806,10.08432 -52.6327,23.46837 -14.3521,13.38404 -24.7012,30.57063 -32.5805,48.54371 -22.2877,50.83908 -25.4127,110.18225 -6.7004,162.44314 18.7123,52.26089 59.5042,96.60789 110.8034,117.81513 38.9126,16.08661 82.024,18.84705 124.1172,17.78257 152.0703,-3.84563 302.5434,-56.29005 424.0607,-147.79803"
       id="path2-7-8"
       inkscape:path-effect="#path-effect2-3-2"
       inkscape:original-d="m 1369.593,524.46605 c 52.0029,-79.37277 45.8881,-209.71195 98.8033,-289.08472 52.9152,-79.37278 -50.8625,-47.21312 -82.794,-70.47755 -31.9316,-23.26444 -70.4775,124.30506 -85.531,169.00926 -15.0535,44.70421 86.7823,144.02415 180.7624,144.02415 89.8729,0 146.5563,-174.22832 177.1194,-196.12425 30.5631,-21.89594 -70.3593,-39.52708 -91.3429,-117.07519 -20.9836,-77.54811 -58.2994,57.41479 -85.2132,72.01208 -26.9137,14.59729 53.9248,192.21836 104.103,280.25827 43.3988,76.14523 62.4863,46.15022 124.1172,17.78257 9.6274,-4.43132 413.5219,-144.83977 424.0607,-147.79803"
       sodipodi:nodetypes="csssssssssc"
       transform="translate(-294.29944,-106.49363)"
       inkscape:export-filename="hannys-logo-exported.svg"
       inkscape:export-xdpi="96"
       inkscape:export-ydpi="96" />
    <path
       style="font-style:italic;font-weight:bold;font-size:128px;font-family:'Segoe UI';-inkscape-font-specification:'Segoe UI Bold Italic'"
       d="m 376.0328,1021.5916 c -7.04287,-1.5329 -14.06423,-3.1433 -21.06301,-4.8274 5.4571,-11.1188 10.82373,-22.26994 16.09695,-33.45281 -12.25297,-2.84746 -24.45541,-5.93553 -36.60099,-9.24086 -5.71072,10.97293 -11.50601,21.91225 -17.38288,32.81737 -6.9346,-1.9444 -13.84454,-3.9558 -20.72876,-6.0301 15.0427,-26.66904 29.61778,-53.55294 43.68003,-80.64286 6.37593,1.7909 12.75971,3.51972 19.15024,5.1825 -5.41262,10.90957 -10.91296,21.78672 -16.49809,32.63087 11.97237,3.21143 23.99027,6.20546 36.04735,8.95863 5.16454,-11.04665 10.23481,-22.12482 15.20789,-33.23395 6.39183,1.40644 12.78845,2.74012 19.18879,3.99712 -11.74421,28.13674 -24.12512,56.08684 -37.09752,83.84149 z m 89.1786,-6.4089 c -0.45118,1.2476 -0.93505,2.7638 -1.45252,4.5484 -0.47405,1.7898 -0.95958,3.662 -1.45681,5.6165 -0.44864,1.9184 -0.8745,3.8183 -1.27715,5.7 -0.35377,1.846 -0.61258,3.4503 -0.77549,4.8157 -7.08521,-0.8474 -14.15363,-1.785 -21.20425,-2.809 0.0898,-0.6184 0.22559,-1.3981 0.40719,-2.3399 0.23151,-0.9765 0.46271,-1.9531 0.6936,-2.9297 0.23686,-1.0179 0.46744,-1.9946 0.69176,-2.9301 0.0622,-0.2204 0.62162,-2.2058 0.68385,-2.4263 -0.087,-0.013 -0.17406,-0.025 -0.26109,-0.038 -1.49414,1.4254 -3.02955,2.7788 -4.60607,4.0597 -1.57651,1.2809 -3.28788,2.3699 -5.13338,3.2648 -1.83902,0.8536 -3.84608,1.4447 -6.0178,1.7697 -2.13409,0.3732 -4.54571,0.3362 -7.22486,-0.1177 -3.29418,-0.558 -6.13811,-1.629 -8.51933,-3.1993 -2.3377,-1.5627 -4.18069,-3.5552 -5.52687,-5.9685 -1.34648,-2.4139 -2.18151,-5.202 -2.51198,-8.3623 -0.32269,-3.202 -0.10906,-6.7025 0.62686,-10.5073 0.37204,-1.9236 1.03927,-4.23232 1.99745,-6.93391 1.00809,-2.73394 2.37234,-5.52497 4.08337,-8.38095 1.76053,-2.88888 3.93905,-5.65694 6.52419,-8.31557 2.59265,-2.69959 5.66539,-4.99946 9.21139,-6.91688 3.58783,-1.9107 7.70006,-3.26005 12.34626,-4.07563 4.68924,-0.80944 10.00053,-0.77355 15.98555,0.0639 2.32028,0.32468 4.62678,0.74181 6.92239,1.25163 2.34177,0.47384 4.61379,1.01128 6.81819,1.61417 2.25026,0.56649 4.41447,1.1748 6.49416,1.82723 2.08039,0.65266 4.01945,1.2797 5.82085,1.88594 -4.29077,13.31367 -8.73871,26.59165 -13.33946,39.83295 z m -9.93545,-31.40171 c -0.92658,-0.33401 -1.96404,-0.62154 -3.11318,-0.86403 -1.14344,-0.28375 -2.23233,-0.49954 -3.26784,-0.64671 -2.85786,-0.40618 -5.43021,-0.3036 -7.72942,0.31631 -2.29909,0.61989 -4.37967,1.55918 -6.24427,2.82326 -1.82283,1.27058 -3.43747,2.78086 -4.84202,4.53437 -1.40461,1.75357 -2.61403,3.57919 -3.62453,5.47969 -0.96154,1.86651 -1.75189,3.71839 -2.36779,5.55782 -0.57356,1.8467 -0.98306,3.4876 -1.22652,4.9255 -0.25731,1.5197 -0.3479,2.9617 -0.26968,4.3268 0.12802,1.3312 0.45682,2.5269 0.98788,3.5869 0.531,1.0599 1.24943,1.939 2.15509,2.6362 0.94875,0.7041 2.09491,1.1643 3.43592,1.3782 2.4659,0.3934 4.75989,0.053 6.86736,-1.018 2.15106,-1.0642 4.08976,-2.546 5.81437,-4.4419 1.77376,-1.9309 3.31392,-4.1513 4.62445,-6.6588 1.35881,-2.5424 2.51067,-5.0741 3.46089,-7.59169 1.80017,-4.77609 3.58001,-9.55741 5.33929,-14.34392 z m 95.90981,8.79311 c 0.001,0.62473 -0.0596,1.45868 -0.18352,2.50028 -0.12396,1.04179 -0.29041,2.12548 -0.50002,3.2506 -0.16745,1.12516 -0.35687,2.22942 -0.56851,3.31272 -0.2116,1.0414 -0.4032,1.9378 -0.5738,2.6873 -2.66705,12.3314 -5.48095,24.6476 -8.43885,36.9462 -7.11117,-0.087 -14.2169,-0.2804 -21.31408,-0.5765 3.26226,-12.0432 6.38958,-24.1072 9.37922,-36.1898 0.29614,-1.3251 0.59208,-2.692 0.88768,-4.1007 0.29549,-1.40827 0.45306,-2.48872 0.4747,-3.23797 0.0577,-1.99916 -0.42259,-3.59748 -1.43146,-4.79588 -0.96645,-1.23961 -2.46786,-1.89248 -4.51155,-1.9701 -1.71052,-0.065 -3.52453,0.40191 -5.45564,1.39816 -1.88721,0.95645 -3.6948,2.26409 -5.42806,3.92451 -1.73311,1.66026 -3.30421,3.59539 -4.71243,5.80758 -1.36343,2.1733 -2.38168,4.4268 -3.04513,6.7652 -2.93339,10.3794 -5.9654,20.7418 -9.09428,31.0855 -6.09991,-0.4435 -12.19098,-0.9609 -18.27123,-1.5502 -1.0824,-0.1052 -2.16443,-0.2125 -3.24608,-0.322 1.55071,-4.5519 3.08286,-9.1081 4.59627,-13.6687 3.21173,-9.6755 6.33713,-19.3704 9.37463,-29.08348 0.54536,-1.87648 1.08777,-3.75353 1.62721,-5.63116 0.54292,-1.91881 1.03247,-3.73895 1.4695,-5.45816 0.44051,-1.76058 0.82557,-3.38114 1.15577,-4.85851 0.3747,-1.51521 0.66594,-2.78893 0.87428,-3.8163 6.37676,0.52547 12.75656,0.96511 19.13646,1.31592 -0.18672,1.15826 -0.398,2.37811 -0.63416,3.65876 -0.19276,1.24149 -0.40442,2.44003 -0.63526,3.59582 -0.18951,1.15808 -0.37263,2.19126 -0.54915,3.09955 -0.17413,0.86655 -0.31387,1.48499 -0.41852,1.85454 0.0833,0.005 0.16653,0.01 0.24979,0.0142 1.5659,-1.83108 3.30013,-3.53191 5.20067,-5.1063 1.90261,-1.616 3.88371,-3.00591 5.94635,-4.17174 2.10378,-1.1642 4.24645,-2.06495 6.43442,-2.70368 2.18938,-0.68041 4.35913,-0.99665 6.52027,-0.94856 5.17581,0.11517 9.04463,1.62177 11.65952,4.59325 2.65061,2.92389 4.01376,7.04872 4.02499,12.3796 z m 76.45168,-4.81362 c 0.0787,0.61966 0.12186,1.45467 0.1283,2.50344 0.006,1.04897 -0.0241,2.1448 -0.0923,3.28704 -0.0265,1.13708 -0.0774,2.25611 -0.15298,3.35719 -0.0808,1.0594 -0.15978,1.97247 -0.23619,2.73727 -1.11884,12.56488 -2.40273,25.13288 -3.85555,37.70198 -0.83782,0.093 -1.67593,0.1837 -2.51432,0.2731 -6.27114,0.663 -12.5471,1.2343 -18.82575,1.7161 1.82902,-12.3405 3.5044,-24.687 5.0234,-37.0372 0.13513,-1.3506 0.26487,-2.7428 0.38906,-4.17646 0.12414,-1.43306 0.15071,-2.52447 0.0824,-3.27066 -0.18229,-1.99116 -0.84918,-3.52001 -1.99018,-4.58885 -1.10408,-1.11491 -2.66634,-1.58365 -4.69646,-1.41827 -1.69922,0.13843 -3.43771,0.81616 -5.23103,2.03219 -1.75455,1.17134 -3.39026,2.68104 -4.91285,4.53158 -1.52243,1.85036 -2.85414,3.95411 -3.99383,6.31367 -1.0998,2.3158 -1.84965,4.6709 -2.23813,7.0693 -1.71298,10.6447 -3.53854,21.2833 -5.47492,31.9143 -7.23302,0.3062 -14.46613,0.4973 -21.69611,0.5764 3.25602,-14.6605 6.29888,-29.3426 9.12357,-44.042 0.3298,-1.92539 0.65622,-3.85102 0.97924,-5.77687 0.32183,-1.96713 0.60153,-3.83035 0.84035,-5.58727 0.2376,-1.79839 0.43585,-3.45162 0.59582,-4.95627 0.19967,-1.54719 0.34388,-2.8454 0.4339,-3.88928 6.35504,-0.19483 12.7015,-0.4873 19.03643,-0.8804 -0.0496,1.1716 -0.11637,2.40725 -0.20076,3.7061 -0.0461,1.25495 -0.11593,2.46945 -0.20979,3.64374 -0.0528,1.17176 -0.11378,2.21877 -0.18285,3.14104 -0.0716,0.88051 -0.13797,1.51077 -0.19858,1.8898 0.0829,-0.005 0.16579,-0.01 0.24868,-0.0149 1.33602,-1.9997 2.85199,-3.89016 4.54518,-5.67542 1.69036,-1.82681 3.48286,-3.43931 5.38063,-4.84016 1.93858,-1.4041 3.94504,-2.55256 6.02637,-3.44779 2.07774,-0.93678 4.17852,-1.51123 6.31464,-1.72452 1.39782,-0.13958 2.71103,-0.16505 3.94229,-0.0747 0,0 0,0 0,0 3.27065,0.24473 5.96753,1.30848 8.10727,3.21839 2.97394,2.5767 4.83315,6.50029 5.505,11.78834 z m 47.54962,47.46562 c -1.57686,4.0753 -3.34832,7.8142 -5.30969,11.2141 -1.90864,3.4327 -4.16038,6.4471 -6.75104,9.0349 -2.59028,2.5874 -5.6174,4.7217 -9.0717,6.3863 -3.40044,1.6982 -7.40515,2.8709 -11.99,3.4859 -1.58986,0.2132 -3.50718,0.3177 -5.74454,0.3048 -2.27981,0.034 -4.41889,-0.1493 -6.41173,-0.5471 0.68166,-5.1963 1.33319,-10.3925 1.95489,-15.5886 1.0354,0.5035 2.28435,0.8321 3.74514,0.9821 1.4608,0.1501 2.90179,0.1299 4.3197,-0.06 2.6988,-0.3613 5.13289,-1.2924 7.28559,-2.7843 2.15932,-1.4511 3.90119,-3.5897 5.21714,-6.4073 1.43501,-2.9413 2.84589,-5.8867 4.23297,-8.8362 -7.84,-20.2058 -15.26531,-40.52415 -22.25772,-60.94726 6.67512,-0.95094 13.34138,-2.01982 19.99599,-3.20113 3.70907,12.52248 7.50982,25.02365 11.4008,37.50289 0.38508,1.3692 0.74744,2.849 1.08611,4.4387 0.33878,1.5902 0.53872,2.9083 0.59872,3.9568 0.0863,-0.016 0.17259,-0.032 0.25887,-0.048 0.19935,-1.1009 0.45654,-2.4531 0.77329,-4.0857 0.31584,-1.6279 0.75203,-3.3001 1.30557,-5.0179 4.22047,-14.0204 8.02743,-28.06973 11.44519,-42.12981 6.61804,-1.47476 13.22065,-3.05456 19.80502,-4.73389 -7.17136,25.78212 -15.73922,51.5245 -25.88857,77.0805 z m 53.47635,-83.8264 c -3.98988,1.19006 -7.9541,2.34551 -11.89642,3.45342 -3.06587,-8.70223 -6.10768,-17.41228 -9.12371,-26.13072 4.93257,-1.36817 9.94931,-2.835 15.05869,-4.37142 2.00263,9.01248 3.99054,18.02852 5.96144,27.04872 z m 54.46439,-0.85431 c -1.01103,-0.17942 -2.16887,-0.31411 -3.47299,-0.40314 -1.30413,-0.089 -2.67923,-0.11118 -4.1246,-0.0664 -1.40353,0.0322 -2.82918,0.13856 -4.27613,0.31872 -1.44686,0.18015 -2.81347,0.46845 -4.0992,0.86396 -3.02705,0.93116 -5.02131,2.16149 -5.99381,3.68412 -0.93158,1.51028 -1.1483,3.06187 -0.65406,4.65338 0.50668,1.63159 1.55787,2.76685 3.15392,3.40605 1.59695,0.63955 3.60347,1.15093 6.02456,1.53843 2.82928,0.39269 5.34583,0.88432 7.55428,1.47579 2.20761,0.59125 4.13867,1.40056 5.79366,2.42621 1.65502,1.02567 3.05035,2.32652 4.18867,3.9007 1.12658,1.53443 2.02476,3.4404 2.70037,5.71764 0.72279,2.43632 0.93657,5.02468 0.65144,7.7616 -0.28509,2.73645 -1.26201,5.42321 -2.9293,8.0611 -1.67923,2.59785 -4.19179,5.06732 -7.55589,7.41402 -3.32112,2.3326 -7.70944,4.3559 -13.19316,6.0567 -1.5679,0.4863 -3.26947,0.926 -5.10459,1.3177 -1.83549,0.3918 -3.67457,0.7172 -5.51663,0.9751 -1.84214,0.258 -3.64474,0.4355 -5.40668,0.532 -1.71993,0.084 -3.28651,0.075 -4.69786,-0.027 -0.44001,-5.107 -0.89573,-10.21092 -1.36464,-15.3124 1.24983,0.2333 2.66576,0.41477 4.24779,0.54372 1.58202,0.12895 3.23371,0.19067 4.95482,0.18554 1.75021,-0.0577 3.52113,-0.18943 5.31223,-0.39435 1.77866,-0.24472 3.49066,-0.62301 5.1355,-1.13374 3.0834,-0.95741 5.19605,-2.18211 6.3479,-3.67371 1.19283,-1.50438 1.51134,-3.15233 0.95634,-4.94317 -0.46872,-1.51247 -1.44866,-2.64852 -2.94188,-3.4068 -1.50648,-0.79855 -3.8702,-1.39366 -7.09907,-1.78718 -2.67445,-0.34761 -5.09239,-0.81784 -7.25719,-1.41344 -2.1231,-0.60814 -4.01386,-1.42007 -5.67291,-2.43592 -1.659,-1.01582 -3.05614,-2.28715 -4.19347,-3.81303 -1.13735,-1.5259 -2.03248,-3.36522 -2.68906,-5.51735 -0.69288,-2.27117 -0.95639,-4.73989 -0.79518,-7.4033 0.18955,-2.71507 1.03699,-5.37437 2.54551,-7.97602 1.49614,-2.64127 3.78213,-5.11935 6.87803,-7.43372 3.12265,-2.36548 7.27562,-4.36011 12.48768,-5.96343 1.58551,-0.48773 3.24328,-0.90852 4.97296,-1.26108 1.71774,-0.39247 3.41741,-0.71106 5.09803,-0.95507 1.6807,-0.24403 3.2931,-0.42057 4.83609,-0.5296 1.54296,-0.10902 2.91839,-0.16518 4.12456,-0.16962 0.33905,5.06595 0.69795,10.12807 1.07396,15.18696 z"
       id="text4-7-5-5"
       transform="rotate(-17.782954,-1150.2446,-2684.7246)"
       aria-label="Hanny's"
       inkscape:path-effect="#path-effect6-0"
       inkscape:original-d="m 385.89874,982.85724 h -20.3125 l 7.625,-36.25 h -36.8125 l -7.6875,36.25 h -20.375 l 19.0625,-89.625 h 20.375 l -7.6875,35.75 h 36.875 l 7.6875,-35.75 h 20.3125 z m 82.4375,-21.125 q -0.4375,1.9375 -0.875,4.6875 -0.375,2.75 -0.75,5.75 -0.3125,2.9375 -0.5625,5.8125 -0.1875,2.8125 -0.1875,4.875 h -20 q 0,-0.9375 0.0625,-2.375 0.125,-1.5 0.25,-3 0.125,-1.5625 0.25,-3 0.1875,-1.5 0.3125,-2.5 h -0.25 q -1.8125,2.4375 -3.75,4.6875 -1.9375,2.25 -4.3125,4 -2.375,1.6875 -5.3125,2.6875 -2.875,1.0625 -6.6875,1.0625 -4.6875,0 -8.375,-1.6875 -3.625,-1.6875 -6.125,-4.875 -2.5,-3.1875 -3.8125,-7.75 -1.3125,-4.625 -1.3125,-10.4375 0,-2.9375 0.625,-7.1875 0.6875,-4.3125 2.375,-9 1.75,-4.75 4.8125,-9.375 3.0625,-4.6875 7.8125,-8.4375 4.8125,-3.75 11.5625,-6.0625 6.8125,-2.3125 16,-2.3125 3.5625,0 7.125,0.3125 3.625,0.25 7.0625,0.75 3.5,0.4375 6.75,1.0625 3.25,0.625 6.0625,1.25 z m -13.4375,-29.9375 q -1.4375,-0.3125 -3.1875,-0.4375 -1.75,-0.1875 -3.3125,-0.1875 -4.3125,0 -7.5625,1.4375 -3.25,1.4375 -5.6875,3.75 -2.375,2.3125 -4,5.25 -1.625,2.9375 -2.625,6 -0.9375,3 -1.375,5.875 -0.375,2.875 -0.375,5.0625 0,2.3125 0.4375,4.3125 0.5,1.9375 1.5,3.375 1,1.4375 2.4375,2.25 1.5,0.8125 3.4375,0.8125 3.5625,0 6.3125,-2.0625 2.8125,-2.0625 4.875,-5.25 2.125,-3.25 3.5,-7.25 1.4375,-4.0625 2.3125,-8 z m 96,2.3125 q 0,0.9375 -0.1875,2.5 -0.1875,1.5625 -0.5,3.25 -0.25,1.6875 -0.5625,3.3125 -0.3125,1.5625 -0.5625,2.6875 l -7.8125,37 h -19.8125 l 7.6875,-36.5 q 0.375,-2 0.75,-4.125 0.375,-2.125 0.375,-3.25 0,-3 -1.5625,-4.75 -1.5,-1.8125 -4.5625,-1.8125 -2.5625,0 -5.375,1.625 -2.75,1.5625 -5.1875,4.1875 -2.4375,2.625 -4.3125,6.0625 -1.8125,3.375 -2.5625,6.9375 l -6.625,31.625 h -20.125 l 9.5,-43.875 q 0.5625,-2.875 1.125,-5.75 0.5625,-2.9375 1,-5.5625 0.4375,-2.6875 0.75,-4.9375 0.375,-2.3125 0.5625,-3.875 h 19.5 q -0.1875,1.75 -0.4375,3.6875 -0.1875,1.875 -0.4375,3.625 -0.1875,1.75 -0.375,3.125 -0.1875,1.3125 -0.3125,1.875 h 0.25 q 2.1875,-2.875 4.9375,-5.375 2.75,-2.5625 5.8125,-4.4375 3.125,-1.875 6.4375,-2.9375 3.3125,-1.125 6.625,-1.125 7.9375,0 11.9375,4.4375 4.0625,4.375 4.0625,12.375 z m 76.5625,0 q 0,0.9375 -0.1875,2.5 -0.1875,1.5625 -0.5,3.25 -0.25,1.6875 -0.5625,3.3125 -0.3125,1.5625 -0.5625,2.6875 l -7.8125,37 h -19.8125 l 7.6875,-36.5 q 0.375,-2 0.75,-4.125 0.375,-2.125 0.375,-3.25 0,-3 -1.5625,-4.75 -1.5,-1.8125 -4.5625,-1.8125 -2.5625,0 -5.375,1.625 -2.75,1.5625 -5.1875,4.1875 -2.4375,2.625 -4.3125,6.0625 -1.8125,3.375 -2.5625,6.9375 l -6.625,31.625 h -20.125 l 9.5,-43.875 q 0.5625,-2.875 1.125,-5.75 0.5625,-2.9375 1,-5.5625 0.4375,-2.6875 0.75,-4.9375 0.375,-2.3125 0.5625,-3.875 h 19.5 q -0.1875,1.75 -0.4375,3.6875 -0.1875,1.875 -0.4375,3.625 -0.1875,1.75 -0.375,3.125 -0.1875,1.3125 -0.3125,1.875 h 0.25 q 2.1875,-2.875 4.9375,-5.375 2.75,-2.5625 5.8125,-4.4375 3.125,-1.875 6.4375,-2.9375 3.3125,-1.125 6.625,-1.125 7.9375,0 11.9375,4.4375 4.0625,4.375 4.0625,12.375 z m 37.8125,54.375 q -3.1875,5.5625 -6.625,10.0625 -3.375,4.56246 -7.375,7.74996 -4,3.1875 -8.875,4.875 -4.8125,1.75 -10.9375,1.75 -2.125,0 -5.0625,-0.4375 -3,-0.375 -5.5625,-1.3125 l 3.375,-15.24996 q 1.3125,0.9375 3.25,1.4375 1.9375,0.5 3.875,0.5 3.6875,0 6.875,-1.75 3.1875,-1.6875 5.5625,-5.5625 l 5.125,-8.0625 -12.4375,-63.625 h 20.75 l 4.5,38.9375 q 0.1875,2.125 0.25,4.5625 0.0625,2.4375 -0.125,4 h 0.25 q 0.5625,-1.5625 1.4375,-3.875 0.875,-2.3125 2.125,-4.6875 l 19.5625,-38.9375 h 20.75 z m 69.5,-68.75 h -12.5 l -1.8125,-27.625 h 16.375 z m 50.8125,15.125 q -1.3125,-0.6875 -3.0625,-1.375 -1.75,-0.6875 -3.75,-1.25 -1.9375,-0.5625 -4,-0.9375 -2.0625,-0.375 -4,-0.375 -4.5625,0 -6.5625,1.75 -1.9375,1.75 -1.9375,4.25 0,2.5625 1.9375,4.1875 1.9375,1.625 5.125,3.25 3.75,1.8125 6.5625,3.625 2.8125,1.8125 4.6875,4 1.875,2.1875 2.8125,4.9375 0.9375,2.6875 0.9375,6.25 0,3.8125 -1.5625,7.625 -1.5625,3.8125 -5.0625,6.875 -3.5,3 -9.25,4.875 -5.6875,1.875 -14,1.875 -2.375,0 -5.0625,-0.25 -2.6875,-0.25 -5.3125,-0.6875 -2.625,-0.4375 -5.0625,-1.0625 -2.375,-0.625 -4.25,-1.375 l 2.9375,-15.0625 q 1.625,0.875 3.75,1.75 2.125,0.875 4.5,1.625 2.4375,0.6875 5,1.1875 2.5625,0.4375 5.0625,0.4375 4.6875,0 6.9375,-1.625 2.3125,-1.625 2.3125,-4.4375 0,-2.375 -1.75,-4.125 -1.75,-1.8125 -6.0625,-3.8125 -3.5625,-1.6875 -6.3125,-3.5 -2.6875,-1.8125 -4.5625,-4 -1.875,-2.1875 -2.8125,-4.875 -0.9375,-2.6875 -0.9375,-6.0625 0,-3.5625 1.375,-7.3125 1.4375,-3.8125 4.6875,-6.875 3.25,-3.125 8.5625,-5.0625 5.375,-2 13.1875,-2 2.375,0 4.875,0.25 2.5,0.1875 4.875,0.5625 2.375,0.375 4.5,0.875 2.125,0.5 3.75,1 z" />
    <path
       style="fill:#000000;fill-opacity:1;stroke:none;stroke-width:24;stroke-linecap:round;stroke-dasharray:none;stroke-opacity:1"
       d="m 331.91179,834.61784 c 15.3779,-80.858 29.71687,-156.25327 44.99678,-236.59602"
       id="path8-1"
       inkscape:path-effect="#path-effect9-0"
       inkscape:original-d="m 331.91179,834.61784 c 33.8474,-77.3454 42.69647,-153.78476 44.99678,-236.59602"
       transform="translate(732.99838,-325.52394)"
       sodipodi:nodetypes="cc" />
    <path
       style="fill:#000000;fill-opacity:1;stroke:none;stroke-width:37.8559;stroke-linecap:round;stroke-dasharray:none;stroke-opacity:1"
       d="m 1286.2598,71.099633 c 30.4711,10.15834 59.3613,54.288067 59.3675,117.705347 -0.055,56.34674 -44.1208,124.26731 -67.5425,140.18433 39.3411,-13.38397 86.2927,-76.093 86.3605,-135.39556 -0.01,-64.35332 -34.7008,-114.520847 -78.1855,-122.494117 z"
       id="path11"
       sodipodi:nodetypes="ccccc" />
    <path
       style="fill:#000000;fill-opacity:1;stroke:none;stroke-width:37.8559;stroke-linecap:round;stroke-dasharray:none;stroke-opacity:1"
       d="m 1072.3083,70.697913 c -30.4711,10.15834 -59.3613,54.288067 -59.3675,117.705347 0.055,56.34674 44.1208,124.26731 67.5425,140.18433 -39.3411,-13.38397 -86.2927,-76.093 -86.3605,-135.39556 0.01,-64.35332 34.7008,-114.520847 78.1855,-122.494117 z"
       id="path11-08"
       sodipodi:nodetypes="ccccc" />
    <path
       id="path11-0"
       style="fill:#000000;fill-opacity:1;stroke:none;stroke-width:37.8559;stroke-linecap:round;stroke-dasharray:none;stroke-opacity:1"
       d="m 1304.4785,51.814453 c 24.786,11.7308 68.6794,73.871847 68.6856,137.289067 -0.01,7.80597 -1.0893,15.83003 -2.9258,23.91992 l -85.1055,140.10547 c 8.042,-6.79744 16.0496,-13.61243 23.8301,-20.54688 -0.7869,1.37388 -1.5553,2.72732 -2.1445,3.89063 47.5324,-40.21624 77.2743,-85.72805 80.7597,-149.41602 -2e-4,-0.66735 -0.029,-1.35276 -0.037,-2.02539 0.054,-0.25416 0.1101,-0.50756 0.1641,-0.76172 l -0.1719,0.2832 c -0.473,-31.65575 -9.7343,-68.81743 -28.8516,-92.091787 -18.7361,-22.81036 -34.0937,-32.91013 -54.2031,-40.64649 z" />
    <path
       id="path11-0-7"
       style="fill:#000000;fill-opacity:1;stroke:none;stroke-width:37.8559;stroke-linecap:round;stroke-dasharray:none;stroke-opacity:1"
       d="m 1055.4807,50.911323 c -24.786,11.7308 -68.6794,73.871847 -68.6856,137.289067 0.01,7.80597 1.0893,15.83003 2.9258,23.91992 l 98.0365,141.96148 c -14.6948,-7.28128 -28.8616,-16.537 -36.6421,-23.47145 1.9587,0.80688 3.2176,2.06422 4.0941,3.39385 -54.7899,-43.6031 -79.3429,-84.16271 -82.8283,-147.85068 2e-4,-0.66735 0.029,-1.35276 0.037,-2.02539 -0.054,-0.25416 -0.1101,-0.50756 -0.1641,-0.76172 l 0.1719,0.2832 c 0.473,-31.65575 9.7343,-68.81743 28.8516,-92.091787 18.7361,-22.81036 34.0937,-32.91013 54.2031,-40.64649 z"
       sodipodi:nodetypes="scccccccccsss" />
    <circle
       style="fill:#000000;fill-opacity:1;stroke:none;stroke-width:28.6283;stroke-linecap:round;stroke-dasharray:none;stroke-opacity:1"
       id="path12"
       cx="1070.3876"
       cy="410.26624"
       r="21.322145" />
    <circle
       style="fill:#000000;fill-opacity:1;stroke:none;stroke-width:28.6283;stroke-linecap:round;stroke-dasharray:none;stroke-opacity:1"
       id="path12-4"
       cx="1835.2936"
       cy="272.75159"
       r="21.322145" />
  </g>
</svg>
